<svg width="336" height="48" viewBox="0 0 336 48" fill="none" xmlns="http://www.w3.org/2000/svg">
<path d="M11.2812 35V12.8125H26.2812V16.2812H15.0469V23.0781H23.3125V26.5625H15.0469V35H11.2812ZM39.2188 35.3125C37.1979 35.3125 35.7396 34.7604 34.8438 33.6562C33.9583 32.5521 33.5156 30.7865 33.5156 28.3594V15.0625H28.75V11.5625H37.3594V28.2031C37.3594 29.349 37.5469 30.1823 37.9219 30.7031C38.3073 31.224 39.1562 31.4844 40.4688 31.4844C41.3646 31.4844 42.5 31.2865 43.875 30.8906L44.3125 34.6562C43.4479 34.8854 42.6146 35.0521 41.8125 35.1562C41.0104 35.2604 40.1458 35.3125 39.2188 35.3125ZM58.6875 35.1562L58.4688 31.5H58.1094C57.974 32.7708 57.4531 33.724 56.5469 34.3594C55.651 34.9948 54.4635 35.3125 52.9844 35.3125C51.2344 35.3125 49.875 34.8906 48.9062 34.0469C47.9479 33.1927 47.4688 31.9792 47.4688 30.4062C47.4688 28.5938 48.1146 27.2031 49.4062 26.2344C50.6979 25.2656 52.526 24.7812 54.8906 24.7812C56.151 24.7812 57.2448 24.8802 58.1719 25.0781V24.75C58.1719 23.7812 57.7917 23.0729 57.0312 22.625C56.2708 22.1667 55.1354 21.9167 53.625 21.875L49.5 21.7656L49.8125 18.2812L53.3125 18.3281C56.2083 18.3698 58.3594 18.9635 59.7656 20.1094C61.1719 21.2448 61.875 22.9062 61.875 25.0938V31.5312L64.375 31.875V35L58.6875 35.1562ZM58.1719 28.1875C57.6094 28.0833 57.0729 28.026 56.5625 28.0156C56.0625 27.9948 55.5365 27.9844 54.9844 27.9844C52.526 27.9844 51.2969 28.7083 51.2969 30.1562C51.2969 31.4583 52.1406 32.1094 53.8281 32.1094C54.7969 32.1094 55.599 31.9375 56.2344 31.5938C56.8802 31.2396 57.3646 30.7969 57.6875 30.2656C58.0104 29.724 58.1719 29.1667 58.1719 28.5938V28.1875ZM78.2188 35V23.2031C78.2188 22.0573 77.849 21.4844 77.1094 21.4844C76.224 21.4844 75.7812 22.1562 75.7812 23.5V35H72.7656V22.8906C72.7656 21.9531 72.3906 21.4844 71.6406 21.4844C70.7448 21.4844 70.2969 22.1562 70.2969 23.5V35H66.4688V18.4375H69.9219L70.1406 20.5H70.4688C70.6458 18.9167 71.526 18.125 73.1094 18.125C74.526 18.125 75.3802 18.9167 75.6719 20.5H76.0156C76.0885 19.7917 76.3646 19.2188 76.8438 18.7812C77.3229 18.3438 77.974 18.125 78.7969 18.125C79.9219 18.125 80.7396 18.4323 81.25 19.0469C81.7708 19.6615 82.0312 20.6562 82.0312 22.0312V35H78.2188ZM94.3594 35.3125C91.5052 35.3125 89.3021 34.5729 87.75 33.0938C86.2083 31.6042 85.4375 29.4688 85.4375 26.6875C85.4375 23.9792 86.0938 21.875 87.4062 20.375C88.7292 18.875 90.5885 18.125 92.9844 18.125C95.2969 18.125 97.0833 18.8125 98.3438 20.1875C99.6146 21.5625 100.25 23.5573 100.25 26.1719C100.25 26.9219 100.219 27.6354 100.156 28.3125H89.375C90 30.6042 91.7865 31.75 94.7344 31.75C95.4635 31.75 96.1771 31.7135 96.875 31.6406C97.5833 31.5573 98.3021 31.4479 99.0312 31.3125L99.4375 34.875C98.4062 35.0625 97.4635 35.1823 96.6094 35.2344C95.7656 35.2865 95.0156 35.3125 94.3594 35.3125ZM89.2031 25.5312H96.5625C96.5625 24.2604 96.25 23.2917 95.625 22.625C95 21.9479 94.1302 21.6094 93.0156 21.6094C91.9323 21.6094 91.0625 21.9479 90.4062 22.625C89.75 23.3021 89.349 24.2708 89.2031 25.5312ZM104.953 35L102.531 12.8125H106.281L107.844 31.7969H108.234L110.047 18.4375H113.484L115.266 31.7969H115.656L117.219 12.8125H120.969L118.547 35H113.25L111.844 22.2344H111.656L110.25 35H104.953ZM130.5 35.3125C128.146 35.3125 126.323 34.5625 125.031 33.0625C123.74 31.5625 123.094 29.4479 123.094 26.7188C123.094 23.9792 123.74 21.8646 125.031 20.375C126.323 18.875 128.146 18.125 130.5 18.125C132.854 18.125 134.677 18.875 135.969 20.375C137.26 21.8646 137.906 23.9792 137.906 26.7188C137.906 29.4479 137.26 31.5625 135.969 33.0625C134.677 34.5625 132.854 35.3125 130.5 35.3125ZM130.5 31.7188C131.594 31.7188 132.438 31.2865 133.031 30.4219C133.635 29.5469 133.938 28.3125 133.938 26.7188C133.938 25.1146 133.635 23.8802 133.031 23.0156C132.438 22.151 131.594 21.7188 130.5 21.7188C129.406 21.7188 128.557 22.151 127.953 23.0156C127.359 23.8802 127.062 25.1146 127.062 26.7188C127.062 28.3125 127.359 29.5469 127.953 30.4219C128.557 31.2865 129.406 31.7188 130.5 31.7188ZM151.719 35.3125C149.698 35.3125 148.24 34.7604 147.344 33.6562C146.458 32.5521 146.016 30.7865 146.016 28.3594V15.0625H141.25V11.5625H149.859V28.2031C149.859 29.349 150.047 30.1823 150.422 30.7031C150.807 31.224 151.656 31.4844 152.969 31.4844C153.865 31.4844 155 31.2865 156.375 30.8906L156.812 34.6562C155.948 34.8854 155.115 35.0521 154.312 35.1562C153.51 35.2604 152.646 35.3125 151.719 35.3125ZM164.641 35V25.2188H159.531V21.875H164.641V19.8438C164.641 14.1146 167.344 11.25 172.75 11.25C174 11.25 175.198 11.3542 176.344 11.5625L175.969 15.0625C175.292 14.9792 174.693 14.9219 174.172 14.8906C173.651 14.8594 173.146 14.8438 172.656 14.8438C169.875 14.8438 168.484 16.4583 168.484 19.6875V21.875H175.156V25.2188H168.484V35H164.641ZM198.469 35V12.8125H205.219C207.521 12.8125 209.297 13.2969 210.547 14.2656C211.807 15.224 212.438 16.5885 212.438 18.3594C212.438 19.7552 211.984 20.8646 211.078 21.6875C210.172 22.5 208.88 22.9635 207.203 23.0781V23.4531H207.562C209.615 23.4531 211.198 23.9271 212.312 24.875C213.438 25.8229 214 27.1667 214 28.9062C214 30.8438 213.401 32.3438 212.203 33.4062C211.016 34.4688 209.323 35 207.125 35H198.469ZM202.234 31.5312H206.219C207.448 31.5312 208.401 31.25 209.078 30.6875C209.755 30.1146 210.094 29.3125 210.094 28.2812C210.094 27.25 209.734 26.4479 209.016 25.875C208.307 25.3021 207.302 25.0156 206 25.0156H202.234V31.5312ZM202.234 21.5469H205.281C207.448 21.5469 208.531 20.6406 208.531 18.8281C208.531 17.1302 207.375 16.2812 205.062 16.2812H202.234V21.5469ZM223.391 27.875V31.6562H227.344V35H215.969V31.6562H219.547V21.7812H216.594V18.4375H222.766L223.281 22.375H223.797C223.964 19.5417 225.417 18.125 228.156 18.125C231.406 18.125 233.031 20.3021 233.031 24.6562H229.188C229.188 23.5833 229.005 22.8125 228.641 22.3438C228.286 21.875 227.714 21.6406 226.922 21.6406C225.745 21.6406 224.859 22.1823 224.266 23.2656C223.682 24.349 223.391 25.8854 223.391 27.875ZM243 35.3125C240.646 35.3125 238.823 34.5625 237.531 33.0625C236.24 31.5625 235.594 29.4479 235.594 26.7188C235.594 23.9792 236.24 21.8646 237.531 20.375C238.823 18.875 240.646 18.125 243 18.125C245.354 18.125 247.177 18.875 248.469 20.375C249.76 21.8646 250.406 23.9792 250.406 26.7188C250.406 29.4479 249.76 31.5625 248.469 33.0625C247.177 34.5625 245.354 35.3125 243 35.3125ZM243 31.7188C244.094 31.7188 244.938 31.2865 245.531 30.4219C246.135 29.5469 246.438 28.3125 246.438 26.7188C246.438 25.1146 246.135 23.8802 245.531 23.0156C244.938 22.151 244.094 21.7188 243 21.7188C241.906 21.7188 241.057 22.151 240.453 23.0156C239.859 23.8802 239.562 25.1146 239.562 26.7188C239.562 28.3125 239.859 29.5469 240.453 30.4219C241.057 31.2865 241.906 31.7188 243 31.7188ZM263.469 35L261.688 22.25H261.5L259.719 35H254.719L253.312 18.4375H257.031L257.875 31.6406H258.156L260.078 18.4375H263.109L265.031 31.6406H265.312L266.484 18.4375H270.188L268.312 35H263.469ZM279.219 35.3125C276.74 35.3125 274.802 35.1562 273.406 34.8438L273.859 31.2188C275.078 31.3854 276.125 31.5104 277 31.5938C277.875 31.6771 278.615 31.7188 279.219 31.7188C280.74 31.7188 281.839 31.5938 282.516 31.3438C283.203 31.0938 283.547 30.6979 283.547 30.1562C283.547 29.8021 283.448 29.5365 283.25 29.3594C283.052 29.1719 282.74 29.0208 282.312 28.9062L277.547 27.5781C276.224 27.2135 275.245 26.7135 274.609 26.0781C273.974 25.4323 273.656 24.526 273.656 23.3594C273.656 21.5573 274.38 20.2344 275.828 19.3906C277.286 18.5469 279.552 18.125 282.625 18.125C283.365 18.125 284.104 18.151 284.844 18.2031C285.583 18.2552 286.354 18.3333 287.156 18.4375L286.75 21.9375C285.844 21.8542 285.047 21.7969 284.359 21.7656C283.682 21.7344 283.073 21.7188 282.531 21.7188C280.802 21.7188 279.552 21.8385 278.781 22.0781C278.01 22.3177 277.625 22.7031 277.625 23.2344C277.625 23.5885 277.74 23.849 277.969 24.0156C278.198 24.1823 278.552 24.3281 279.031 24.4531L283.031 25.5312C284.583 25.9271 285.729 26.4844 286.469 27.2031C287.219 27.9219 287.594 28.901 287.594 30.1406C287.594 31.901 286.911 33.2031 285.547 34.0469C284.193 34.8906 282.083 35.3125 279.219 35.3125ZM300.609 35.3125C297.755 35.3125 295.552 34.5729 294 33.0938C292.458 31.6042 291.688 29.4688 291.688 26.6875C291.688 23.9792 292.344 21.875 293.656 20.375C294.979 18.875 296.839 18.125 299.234 18.125C301.547 18.125 303.333 18.8125 304.594 20.1875C305.865 21.5625 306.5 23.5573 306.5 26.1719C306.5 26.9219 306.469 27.6354 306.406 28.3125H295.625C296.25 30.6042 298.036 31.75 300.984 31.75C301.714 31.75 302.427 31.7135 303.125 31.6406C303.833 31.5573 304.552 31.4479 305.281 31.3125L305.688 34.875C304.656 35.0625 303.714 35.1823 302.859 35.2344C302.016 35.2865 301.266 35.3125 300.609 35.3125ZM295.453 25.5312H302.812C302.812 24.2604 302.5 23.2917 301.875 22.625C301.25 21.9479 300.38 21.6094 299.266 21.6094C298.182 21.6094 297.312 21.9479 296.656 22.625C296 23.3021 295.599 24.2708 295.453 25.5312ZM317.141 27.875V31.6562H321.094V35H309.719V31.6562H313.297V21.7812H310.344V18.4375H316.516L317.031 22.375H317.547C317.714 19.5417 319.167 18.125 321.906 18.125C325.156 18.125 326.781 20.3021 326.781 24.6562H322.938C322.938 23.5833 322.755 22.8125 322.391 22.3438C322.036 21.875 321.464 21.6406 320.672 21.6406C319.495 21.6406 318.609 22.1823 318.016 23.2656C317.432 24.349 317.141 25.8854 317.141 27.875Z" fill="white"/>
 </svg>
