<svg width="336" height="48" viewBox="0 0 336 48" fill="none" xmlns="http://www.w3.org/2000/svg">
<g clip-path="url(#clip0_0_1)">
<path d="M314.4 2.80312L315.9 0.80625C316.275 0.3 316.875 0 317.503 0C318.6 0 319.5 0.9 319.5 1.99687V4.07812C319.5 5.30625 320.006 6.4875 320.897 7.33125L328.837 14.9062C333.412 19.275 336 25.3313 336 31.6594C336 40.6875 328.687 48 319.659 48H318C308.062 48 300 39.9375 300 30V29.6438C300 25.0688 301.819 20.6813 305.053 17.4469L305.381 17.1188C305.775 16.725 306.319 16.5 306.881 16.5C308.053 16.5 309 17.4469 309 18.6188V27C309 30.3094 311.691 33 315 33C318.309 33 321 30.3094 321 27V26.6344C321 24.9469 320.325 23.325 319.134 22.1344L315.516 18.5156C313.266 16.2656 312 13.2 312 10.0125C312 7.41563 312.844 4.875 314.4 2.80312Z" fill="url(#paint0_linear_0_1)"/>
<path d="M3.30128 16.5918C3.422 16.4555 3.58943 16.3694 3.77051 16.3506C3.95159 16.3318 4.13314 16.3815 4.27933 16.49C4.42552 16.5985 4.52572 16.7579 4.56013 16.9366C4.59454 17.1154 4.56067 17.3006 4.4652 17.4556C2.23739 20.4927 2.01006 23.1297 1.79182 25.5303L1.70089 26.576C1.9555 26.4214 2.26467 26.3669 2.8739 26.4851C2.97623 26.5053 3.07302 26.5472 3.15771 26.6081C3.2424 26.6689 3.31301 26.7473 3.36475 26.8379C3.4165 26.9284 3.44816 27.029 3.45761 27.1329C3.46705 27.2368 3.45405 27.3414 3.41949 27.4398C2.95192 28.9512 2.76094 30.5345 2.85572 32.1137C2.91459 33.137 3.14833 34.1427 3.54679 35.0872C3.96553 34.6915 4.42945 34.3466 4.92895 34.0596C6.11105 33.4049 7.03855 33.5231 7.29316 33.6686C7.97514 34.0324 7.97514 35.1235 7.98423 36.542C7.98423 37.4877 7.99333 38.6335 8.1661 39.6701C8.26586 39.4649 8.39446 39.2751 8.54801 39.1063C8.75009 38.888 8.9968 38.7157 9.27137 38.6011C9.54595 38.4866 9.84196 38.4325 10.1393 38.4425C10.7234 38.4675 11.2934 38.6295 11.8033 38.9154C13.0312 39.6064 14.054 40.6104 14.7677 41.8252C15.0019 41.593 15.2949 41.4288 15.6153 41.3503C15.9356 41.2719 16.2713 41.282 16.5863 41.3796C17.0796 41.5375 17.5242 41.8192 17.8775 42.198C18.4495 42.8092 18.8972 43.5256 19.196 44.3076C19.5598 43.3983 20.0326 42.6981 20.5145 42.198C20.8704 41.8179 21.3183 41.5361 21.8149 41.3796C22.1307 41.2831 22.4669 41.2744 22.7873 41.3545C23.1077 41.4346 23.4002 41.6005 23.6335 41.8342C24.3447 40.6206 25.3643 39.6168 26.5887 38.9244C27.0998 38.6308 27.6732 38.4625 28.2619 38.4334C28.8802 38.4334 29.4258 38.6335 29.8623 39.0972C30.0077 39.2609 30.135 39.4428 30.2442 39.661C30.4078 38.6153 30.4169 37.4786 30.426 36.533C30.426 35.1144 30.426 34.0233 31.108 33.6595C31.203 33.6065 31.3086 33.5754 31.4172 33.5686C32.1363 33.5027 32.8574 33.6718 33.4722 34.0505C33.9749 34.3369 34.4419 34.6818 34.8635 35.0781C35.2619 34.1336 35.4957 33.128 35.5545 32.1046C35.6475 30.5122 35.4503 28.9162 34.9726 27.3944C34.9442 27.2969 34.9365 27.1946 34.95 27.094C34.9635 26.9934 34.9979 26.8968 35.051 26.8103C35.1041 26.7238 35.1747 26.6494 35.2583 26.5918C35.3419 26.5342 35.4366 26.4948 35.5364 26.476C36.1456 26.3578 36.4457 26.4123 36.7185 26.5669C36.673 26.2214 36.6457 25.8758 36.6093 25.5212C36.4002 23.1206 36.1638 20.4836 33.936 17.4465C33.8792 17.3695 33.8383 17.2821 33.8153 17.1892C33.7924 17.0963 33.788 16.9999 33.8023 16.9053C33.8167 16.8107 33.8495 16.7199 33.899 16.638C33.9484 16.5561 34.0135 16.4848 34.0906 16.4281C34.1676 16.3714 34.255 16.3304 34.3479 16.3074C34.4407 16.2845 34.5372 16.2801 34.6318 16.2945C34.7264 16.3088 34.8172 16.3417 34.899 16.3911C34.9809 16.4406 35.0523 16.5056 35.109 16.5827C37.5732 19.9471 37.8278 22.8024 38.0552 25.403C38.1279 26.2214 38.2006 27.0125 38.3461 27.7854C38.3692 27.9069 38.3609 28.0323 38.322 28.1497C38.2831 28.2671 38.215 28.3726 38.124 28.4564C38.0329 28.5401 37.9221 28.5993 37.8019 28.6282C37.6816 28.6572 37.556 28.655 37.4368 28.622C37.1854 28.5531 36.9416 28.4586 36.7094 28.3401C37.0004 29.6949 37.0822 30.9953 37.0004 32.1955C36.8821 33.9232 36.4184 35.4509 35.6728 36.6512C35.6162 36.753 35.536 36.8398 35.4388 36.9042C35.3417 36.9686 35.2306 37.0088 35.1147 37.0212C34.9988 37.0337 34.8817 37.0182 34.7731 36.9759C34.6645 36.9337 34.5676 36.866 34.4907 36.7785C33.9988 36.2017 33.415 35.7101 32.763 35.3236C32.1628 34.978 31.8718 34.9144 31.8082 34.9235C31.7354 34.9689 31.8718 35.6055 31.8718 36.542C31.8627 38.5153 31.8446 41.2341 30.4715 42.8618C30.3778 42.9877 30.2458 43.0799 30.0954 43.1246C29.9449 43.1694 29.784 43.1643 29.6367 43.1101C29.4894 43.0558 29.3636 42.9554 29.278 42.8238C29.1925 42.6922 29.1518 42.5365 29.1621 42.3798C29.2621 41.1432 29.1075 40.4248 28.7984 40.0884C28.7302 40.0188 28.6477 39.9649 28.5566 39.9304C28.4656 39.8959 28.3681 39.8815 28.271 39.8883C27.919 39.9107 27.5769 40.0133 27.2707 40.1884C25.9426 40.9346 24.9335 42.141 24.4337 43.5801C24.3978 43.7378 24.3105 43.879 24.1854 43.9815C24.0604 44.084 23.9047 44.1419 23.7431 44.1461C23.5815 44.1502 23.423 44.1004 23.2929 44.0045C23.1627 43.9086 23.0682 43.7721 23.0242 43.6165C22.906 43.18 22.7333 42.9163 22.5514 42.7981C22.4995 42.7724 22.4429 42.7576 22.385 42.7545C22.3272 42.7513 22.2693 42.76 22.2149 42.7799C21.9607 42.8677 21.7325 43.0177 21.5512 43.2164C20.8237 43.9438 20.169 45.3715 19.9326 47.3538C19.9126 47.5315 19.8279 47.6957 19.6945 47.8149C19.5611 47.9341 19.3885 48 19.2097 48C19.0308 48 18.8582 47.9341 18.7249 47.8149C18.5915 47.6957 18.5067 47.5315 18.4868 47.3538C18.2504 45.3715 17.5866 43.9529 16.8591 43.2164C16.6803 43.019 16.4554 42.869 16.2044 42.7799C16.1494 42.7614 16.0912 42.7543 16.0334 42.7589C15.9755 42.7636 15.9192 42.7801 15.868 42.8072C15.6861 42.9163 15.5133 43.1709 15.3951 43.6165C15.3521 43.7691 15.2604 43.9034 15.1341 43.9991C15.0077 44.0948 14.8535 44.1466 14.6949 44.1466C14.5364 44.1466 14.3822 44.0948 14.2558 43.9991C14.1295 43.9034 14.0378 43.7691 13.9948 43.6165C13.499 42.1604 12.4819 40.9394 11.1395 40.1884C10.8334 40.0133 10.4913 39.9107 10.1393 39.8883C10.0422 39.8815 9.94468 39.8959 9.85363 39.9304C9.76257 39.9649 9.68009 40.0188 9.6119 40.0884C9.30273 40.4248 9.15724 41.1432 9.24817 42.3798C9.25789 42.5303 9.2206 42.6801 9.14147 42.8084C9.06234 42.9368 8.94527 43.0374 8.80647 43.0963C8.66766 43.1552 8.51398 43.1696 8.36667 43.1373C8.21937 43.1051 8.08573 43.0278 7.98423 42.9163C6.56571 41.2887 6.55661 38.5334 6.54752 36.542C6.54752 35.6055 6.68392 34.9689 6.61117 34.9326C6.55661 34.9053 6.27473 34.9689 5.6473 35.3145C4.99453 35.7038 4.41074 36.1984 3.91961 36.7785C3.84495 36.8622 3.75195 36.9275 3.64787 36.9693C3.54379 37.0111 3.43146 37.0282 3.31964 37.0194C3.20783 37.0106 3.09957 36.9761 3.00332 36.9185C2.90706 36.861 2.82543 36.7819 2.76479 36.6875C1.95349 35.3232 1.48834 33.781 1.40991 32.1955C1.32808 30.9953 1.41901 29.6949 1.70089 28.3401C1.48009 28.4536 1.24861 28.5449 1.00982 28.6129C0.890671 28.6507 0.763797 28.6571 0.64143 28.6316C0.519063 28.6061 0.405332 28.5495 0.311206 28.4673C0.21708 28.385 0.145735 28.2799 0.104051 28.1621C0.0623666 28.0442 0.0517499 27.9176 0.0732254 27.7945C0.218715 27.0125 0.282367 26.2214 0.355112 25.3939C0.591533 22.8024 0.846141 19.9471 3.31037 16.5827L3.30128 16.5918Z" fill="url(#paint1_linear_0_1)"/>
<path d="M18.4686 33.0685C18.4686 32.8755 18.5452 32.6905 18.6817 32.5541C18.8181 32.4177 19.0031 32.341 19.196 32.341C19.389 32.341 19.574 32.4177 19.7104 32.5541C19.8468 32.6905 19.9235 32.8755 19.9235 33.0685C19.9259 33.5692 19.8293 34.0654 19.6394 34.5286C19.4495 34.9919 19.1699 35.413 18.8167 35.7679C18.4635 36.1228 18.0437 36.4044 17.5813 36.5965C17.119 36.7887 16.6232 36.8876 16.1226 36.8876C15.6204 36.89 15.1227 36.7929 14.6582 36.6018C14.1938 36.4107 13.7718 36.1295 13.4167 35.7744C13.0616 35.4193 12.7803 34.9973 12.5893 34.5328C12.3982 34.0684 12.3011 33.5707 12.3035 33.0685V29.995C12.3035 29.8021 12.3801 29.617 12.5165 29.4806C12.653 29.3442 12.838 29.2676 13.0309 29.2676C13.2238 29.2676 13.4089 29.3442 13.5453 29.4806C13.6817 29.617 13.7584 29.8021 13.7584 29.995V33.0776C13.7584 33.3872 13.8196 33.6938 13.9387 33.9796C14.0577 34.2654 14.2321 34.5248 14.4519 34.7429C14.6717 34.961 14.9325 35.1334 15.2192 35.2503C15.5059 35.3671 15.813 35.426 16.1226 35.4236C16.7448 35.4236 17.3415 35.1764 17.7815 34.7365C18.2214 34.2965 18.4686 33.6907 18.4686 33.0685Z" fill="url(#paint2_linear_0_1)"/>
<path d="M18.4686 33.0685C18.4686 32.8755 18.5452 32.6905 18.6816 32.5541C18.8181 32.4177 19.0031 32.341 19.196 32.341C19.389 32.341 19.574 32.4177 19.7104 32.5541C19.8468 32.6905 19.9235 32.8755 19.9235 33.0685C19.9211 33.3796 19.9806 33.6881 20.0985 33.9761C20.2165 34.264 20.3905 34.5256 20.6105 34.7456C20.8306 34.9656 21.0922 35.1397 21.3801 35.2577C21.668 35.3756 21.9765 35.4351 22.2877 35.4327C22.5973 35.4327 22.9039 35.3714 23.1897 35.2524C23.4755 35.1334 23.735 34.9589 23.953 34.7391C24.1711 34.5194 24.3436 34.2586 24.4604 33.9719C24.5772 33.6851 24.6361 33.3781 24.6337 33.0685V29.995C24.6337 29.8021 24.7104 29.617 24.8468 29.4806C24.9832 29.3442 25.1682 29.2676 25.3612 29.2676C25.5541 29.2676 25.7391 29.3442 25.8755 29.4806C26.012 29.617 26.0886 29.8021 26.0886 29.995V33.0776C26.0886 33.5775 25.99 34.0725 25.7984 34.5342C25.6068 34.996 25.326 35.4154 24.9721 35.7685C24.6182 36.1215 24.1981 36.4013 23.7359 36.5918C23.2737 36.7823 22.7785 36.8797 22.2786 36.8785C21.7787 36.8797 21.2835 36.7823 20.8213 36.5918C20.3591 36.4013 19.939 36.1215 19.5851 35.7685C19.2311 35.4154 18.9504 34.996 18.7588 34.5342C18.5672 34.0725 18.4686 33.5684 18.4686 33.0685Z" fill="url(#paint3_linear_0_1)"/>
<path d="M13.4219 28.9675C13.5861 28.8964 13.7708 28.8883 13.9406 28.9447C14.1104 29.0012 14.2535 29.1183 14.3424 29.2736C14.4313 29.4289 14.4598 29.6115 14.4225 29.7866C14.3853 29.9616 14.2848 30.1167 14.1403 30.2223C13.5698 30.5486 12.9243 30.7209 12.2671 30.7225C11.7664 30.7237 11.2704 30.6259 10.8076 30.4349C10.3448 30.2438 9.92436 29.9632 9.57032 29.6092C9.21629 29.2552 8.9357 28.8347 8.74465 28.3719C8.5536 27.9091 8.45587 27.4131 8.45707 26.9124V25.3666C8.45707 25.1737 8.53371 24.9887 8.67014 24.8522C8.80656 24.7158 8.99159 24.6392 9.18452 24.6392C9.37745 24.6392 9.56248 24.7158 9.69891 24.8522C9.83533 24.9887 9.91197 25.1737 9.91197 25.3666V26.9124C9.91076 27.2228 9.97115 27.5304 10.0896 27.8172C10.2081 28.1041 10.3824 28.3646 10.6023 28.5837C10.8222 28.8027 11.0834 28.976 11.3707 29.0934C11.658 29.2108 11.9658 29.27 12.2762 29.2676C12.6775 29.2676 13.0721 29.1642 13.4219 28.9675Z" fill="url(#paint4_linear_0_1)"/>
<path d="M24.2609 30.2223C24.1164 30.1167 24.0159 29.9616 23.9786 29.7866C23.9413 29.6115 23.9699 29.4289 24.0588 29.2736C24.1477 29.1183 24.2907 29.0012 24.4606 28.9447C24.6304 28.8883 24.815 28.8964 24.9793 28.9675C25.3317 29.1658 25.7297 29.2691 26.1341 29.2676C26.4429 29.2676 26.7487 29.2066 27.034 29.0881C27.3192 28.9696 27.5782 28.796 27.7962 28.5772C28.0142 28.3584 28.1868 28.0987 28.3041 27.813C28.4215 27.5273 28.4813 27.2213 28.4801 26.9124V25.3666C28.4801 25.1737 28.5567 24.9887 28.6932 24.8522C28.8296 24.7158 29.0146 24.6392 29.2076 24.6392C29.4005 24.6392 29.5855 24.7158 29.7219 24.8522C29.8584 24.9887 29.935 25.1737 29.935 25.3666V26.9124C29.9362 27.4124 29.8388 27.9076 29.6483 28.3698C29.4578 28.832 29.178 29.2521 28.825 29.606C28.4719 29.9599 28.0525 30.2407 27.5907 30.4323C27.129 30.6238 26.634 30.7225 26.1341 30.7225C25.4768 30.7213 24.8312 30.5489 24.2609 30.2223Z" fill="url(#paint5_linear_0_1)"/>
<path d="M9.92106 24.3846C10.0971 24.3151 10.2933 24.3171 10.4679 24.3899C10.6426 24.4628 10.782 24.6008 10.8565 24.7747C10.9311 24.9487 10.9349 25.1448 10.8672 25.3215C10.7995 25.4983 10.6656 25.6416 10.4939 25.7212C9.90966 25.9718 9.27187 26.0719 8.63893 26.0122C8.12886 25.9982 7.62814 25.872 7.17237 25.6425C6.7166 25.4131 6.31698 25.086 6.00193 24.6846C5.68014 24.2785 5.44477 23.8109 5.31029 23.3105C5.17581 22.8101 5.14506 22.2875 5.21993 21.7748L6.14742 16.0644C6.19526 15.8922 6.30482 15.7436 6.45519 15.647C6.60556 15.5504 6.78622 15.5126 6.96272 15.5407C7.13921 15.5688 7.29918 15.6609 7.41212 15.7994C7.52505 15.9379 7.58305 16.1132 7.57504 16.2917L6.65664 22.0022C6.61297 22.317 6.634 22.6375 6.71842 22.9439C6.80285 23.2504 6.94891 23.5364 7.14766 23.7844C7.4523 24.1803 7.89292 24.4492 8.38433 24.5391L8.65712 24.5573C9.08714 24.6138 9.5244 24.56 9.92106 24.3846ZM27.8981 25.7212C27.7209 25.6441 27.5815 25.4996 27.5108 25.3197C27.44 25.1398 27.4436 24.9392 27.5208 24.7619C27.5979 24.5847 27.7424 24.4453 27.9223 24.3746C28.1022 24.3038 28.3028 24.3074 28.4801 24.3846C28.8735 24.5601 29.3079 24.6231 29.7349 24.5664C29.8441 24.5664 29.935 24.5482 30.0168 24.5391C30.5082 24.4492 30.9489 24.1803 31.2535 23.7844C31.4518 23.5361 31.5976 23.2501 31.682 22.9437C31.7664 22.6373 31.7877 22.317 31.7445 22.0022L30.817 16.2917C30.7912 16.1031 30.8403 15.912 30.9538 15.7592C31.0672 15.6064 31.2361 15.5042 31.4241 15.4744C31.612 15.4447 31.8042 15.4898 31.9593 15.6001C32.1144 15.7104 32.2201 15.877 32.2537 16.0644L33.1812 21.7748C33.2548 22.2882 33.2226 22.8111 33.0866 23.3115C32.9505 23.812 32.7135 24.2792 32.3901 24.6846C32.0751 25.086 31.6755 25.4131 31.2197 25.6425C30.7639 25.872 30.2632 25.9982 29.7531 26.0122C29.1201 26.0739 28.4819 25.9737 27.8981 25.7212ZM22.8242 36.1601C22.8242 35.9672 22.9008 35.7822 23.0373 35.6458C23.1737 35.5093 23.3587 35.4327 23.5516 35.4327C23.7446 35.4327 23.9296 35.5093 24.066 35.6458C24.2024 35.7822 24.2791 35.9672 24.2791 36.1601C24.2791 37.2513 23.7062 38.0242 22.7696 38.5243C21.6528 39.0456 20.4275 39.2919 19.196 39.2427C17.9684 39.2933 16.7463 39.0502 15.6315 38.5334C14.6949 38.0242 14.1221 37.2513 14.1221 36.151C14.1221 35.9581 14.1987 35.7731 14.3351 35.6367C14.4716 35.5002 14.6566 35.4236 14.8495 35.4236C15.0425 35.4236 15.2275 35.5002 15.3639 35.6367C15.5003 35.7731 15.577 35.9581 15.577 36.151C15.577 36.6421 15.8589 37.0058 16.3226 37.2513C17.0046 37.6241 18.0412 37.7878 19.196 37.7878C20.1856 37.8367 21.1729 37.653 22.0786 37.2513C22.5332 37.0058 22.8242 36.6421 22.8242 36.1601Z" fill="url(#paint6_linear_0_1)"/>
<path d="M38.0824 17.9739C38.2228 18.0848 38.3174 18.2435 38.3482 18.4197C38.3789 18.5959 38.3437 18.7773 38.2492 18.9291C38.1547 19.081 38.0076 19.1927 37.8359 19.243C37.6642 19.2932 37.4801 19.2784 37.3186 19.2015C34.2451 17.2919 30.9534 15.9553 28.2255 15.5188C26.9972 15.2663 25.7269 15.3036 24.5155 15.6279C24.1001 15.7414 23.7188 15.9549 23.405 16.2497C23.0911 16.5445 22.8543 16.9117 22.7151 17.3192C22.5157 18.0074 22.4752 18.7318 22.5969 19.4379C22.6161 19.5762 22.5952 19.7172 22.5365 19.8439C22.4778 19.9706 22.3839 20.0778 22.2659 20.1526C22.148 20.2274 22.011 20.2666 21.8714 20.2657C21.7317 20.2647 21.5953 20.2236 21.4784 20.1472L18.8414 18.6286C18.6816 18.5295 18.5664 18.3723 18.52 18.19C18.4736 18.0077 18.4996 17.8146 18.5925 17.6511C18.6854 17.4875 18.8381 17.3664 19.0184 17.313C19.1988 17.2596 19.3928 17.2781 19.5598 17.3647L21.0874 18.2467C21.1083 17.7735 21.194 17.3054 21.342 16.8555C21.5481 16.2318 21.9035 15.6679 22.3774 15.2131C22.8513 14.7582 23.4292 14.4261 24.0608 14.2457C25.4917 13.847 26.9963 13.791 28.4528 14.0821C31.3717 14.5549 34.8544 15.9734 38.0824 17.9739Z" fill="url(#paint7_linear_0_1)"/>
<path d="M1.08256 19.2022C0.91894 19.2937 0.726301 19.3185 0.544827 19.2714C0.363353 19.2244 0.207057 19.1091 0.108539 18.9495C0.0100207 18.79 -0.023112 18.5987 0.0160514 18.4153C0.0552149 18.232 0.163651 18.0708 0.318741 17.9655C3.5468 15.965 7.02036 14.5556 9.94835 14.0827C11.6215 13.8099 13.1309 13.8463 14.3403 14.2464C15.6497 14.6829 16.6136 15.5285 17.0592 16.8561C17.2041 17.3065 17.2867 17.7746 17.3047 18.2474L18.8414 17.3654C19.0084 17.2788 19.2024 17.2603 19.3827 17.3137C19.5631 17.367 19.7157 17.4882 19.8087 17.6517C19.9016 17.8152 19.9276 18.0084 19.8812 18.1907C19.8348 18.3729 19.7196 18.5301 19.5598 18.6293L16.9228 20.1478C16.8059 20.2242 16.6694 20.2654 16.5298 20.2663C16.3901 20.2673 16.2532 20.228 16.1352 20.1532C16.0173 20.0784 15.9234 19.9713 15.8647 19.8446C15.806 19.7178 15.7851 19.5769 15.8043 19.4386C15.923 18.7318 15.8794 18.0073 15.677 17.3199C15.5387 16.9134 15.3032 16.5469 14.991 16.2522C14.6788 15.9574 14.2994 15.7434 13.8857 15.6286C12.6743 15.3043 11.404 15.2669 10.1757 15.5195C7.44774 15.9559 4.15603 17.2926 1.08256 19.2022Z" fill="url(#paint8_linear_0_1)"/>
<path d="M38.0824 15.3005C38.2228 15.4114 38.3174 15.5701 38.3482 15.7463C38.3789 15.9225 38.3437 16.1039 38.2492 16.2557C38.1547 16.4076 38.0076 16.5193 37.8359 16.5696C37.6642 16.6198 37.4801 16.6051 37.3186 16.5281C36.3428 15.9226 35.335 15.3702 34.2997 14.8732C33.3221 14.3985 32.317 13.9825 31.2899 13.6274C31.1334 13.5483 31.0107 13.4154 30.9444 13.2531C30.8782 13.0908 30.8727 12.91 30.9292 12.744C30.9856 12.5779 31.1001 12.4379 31.2516 12.3496C31.4031 12.2613 31.5814 12.2307 31.7536 12.2634C32.7811 12.609 33.845 13.0455 34.9362 13.5638C36.0001 14.0821 37.0549 14.6549 38.0824 15.2915V15.3005Z" fill="url(#paint9_linear_0_1)"/>
<path d="M1.08256 16.5281C0.921089 16.6051 0.736926 16.6198 0.565257 16.5696C0.393588 16.5193 0.246448 16.4076 0.15195 16.2557C0.0574524 16.1039 0.0222218 15.9225 0.052989 15.7463C0.0837562 15.5701 0.178365 15.4114 0.318738 15.3005C2.31557 14.0658 4.43687 13.0448 6.64754 12.2544C6.82287 12.2167 7.00592 12.2452 7.16155 12.3342C7.31719 12.4233 7.43444 12.5667 7.49081 12.7369C7.54718 12.9072 7.53869 13.0922 7.46696 13.2566C7.39524 13.4209 7.26534 13.553 7.1022 13.6274C4.99668 14.3808 2.97604 15.353 1.07347 16.5281H1.08256Z" fill="url(#paint10_linear_0_1)"/>
<path d="M15.0405 14.7192C15.5391 15.0674 15.9437 15.5337 16.2182 16.0763C16.4927 16.619 16.6285 17.2211 16.6136 17.8291C16.6115 17.9722 16.5673 18.1115 16.4864 18.2296C16.4055 18.3476 16.2916 18.4392 16.1589 18.4929C15.5915 18.7122 14.9789 18.7885 14.375 18.7153C13.7711 18.6421 13.1945 18.4215 12.6959 18.0729C12.1974 17.7244 11.7922 17.2586 11.516 16.7166C11.2398 16.1746 11.1012 15.573 11.1123 14.9648C11.1151 14.8206 11.1607 14.6806 11.2432 14.5624C11.3258 14.4442 11.4416 14.3532 11.576 14.301C12.1423 14.0828 12.7534 14.0068 13.3558 14.0797C13.9582 14.1527 14.5336 14.3723 15.0314 14.7192H15.0405ZM14.9223 16.7288C14.712 16.3111 14.3761 15.9698 13.9619 15.7529C13.5476 15.5359 13.0757 15.4543 12.6126 15.5194C12.7355 16.0714 13.0598 16.5577 13.5219 16.8834C13.9838 17.2103 14.5524 17.35 15.1132 17.2744C15.076 17.0856 15.0058 16.9023 14.9223 16.7288Z" fill="url(#paint11_linear_0_1)"/>
<path d="M24.1882 15.9098C23.7234 16.233 23.3984 16.7204 23.2788 17.2738C23.8424 17.3472 24.4131 17.2078 24.8792 16.8828C25.344 16.5595 25.669 16.0721 25.7885 15.5188C25.225 15.4453 24.6543 15.5848 24.1882 15.9098ZM22.1877 16.0735C22.6003 15.2528 23.3047 14.6159 24.1627 14.2879C25.0207 13.9598 25.9703 13.9643 26.8252 14.3003C27.0889 14.4003 27.2798 14.664 27.2798 14.9641C27.2903 15.5712 27.1516 16.1716 26.8759 16.7126C26.6002 17.2536 26.196 17.7186 25.6986 18.0669C25.2013 18.4153 24.6261 18.6362 24.0234 18.7103C23.4208 18.7845 22.8092 18.7096 22.2422 18.4922C22.1096 18.4386 21.9956 18.347 21.9148 18.2289C21.8339 18.1108 21.7897 17.9715 21.7876 17.8284C21.772 17.2202 21.9063 16.6175 22.1786 16.0735H22.1877Z" fill="url(#paint12_linear_0_1)"/>
<path d="M18.4686 28.9766C18.4686 28.7836 18.5452 28.5986 18.6816 28.4622C18.8181 28.3258 19.0031 28.2491 19.196 28.2491C19.389 28.2491 19.574 28.3258 19.7104 28.4622C19.8468 28.5986 19.9235 28.7836 19.9235 28.9766V33.4322C19.9235 33.6251 19.8468 33.8102 19.7104 33.9466C19.574 34.083 19.389 34.1597 19.196 34.1597C19.0031 34.1597 18.8181 34.083 18.6816 33.9466C18.5452 33.8102 18.4686 33.6251 18.4686 33.4322V28.9766Z" fill="url(#paint13_linear_0_1)"/>
<path d="M16.3226 29.0402C16.3226 29.9495 17.6411 31.4044 19.196 31.4044C20.751 31.4044 22.0786 29.9495 22.0786 29.0402C22.0786 27.4944 16.3226 27.4944 16.3226 29.0402Z" fill="url(#paint14_linear_0_1)"/>
<path d="M17.0501 29.0402C17.0501 29.3221 17.3229 29.7495 17.7684 30.1132C18.167 30.4557 18.6708 30.6515 19.196 30.6679C19.7244 30.6536 20.2318 30.4577 20.6328 30.1132C21.0692 29.7495 21.3511 29.3221 21.3511 29.0402C21.3511 28.9129 20.8692 28.7856 20.2599 28.6856C19.5552 28.5724 18.8369 28.5724 18.1321 28.6856C17.5229 28.7856 17.0501 28.9129 17.0501 29.0402ZM16.85 31.2317C16.0862 30.6042 15.5952 29.7313 15.5952 29.0402C15.5952 28.04 16.6045 27.4671 17.9048 27.258C18.7602 27.1213 19.6319 27.1213 20.4873 27.258C21.7876 27.4671 22.806 28.0491 22.806 29.0402C22.806 29.7313 22.315 30.6042 21.5512 31.2317C20.8921 31.7909 20.0602 32.1056 19.196 32.1228C18.335 32.1036 17.5067 31.7889 16.85 31.2317ZM1.08256 13.6456C0.91894 13.7371 0.726301 13.7619 0.544827 13.7149C0.363353 13.6678 0.207057 13.5525 0.108539 13.393C0.0100207 13.2335 -0.023112 13.0421 0.0160514 12.8588C0.0552149 12.6754 0.163651 12.5143 0.318741 12.4089C2.31593 11.1773 4.43722 10.1593 6.64755 9.37184C6.81873 9.3428 6.99466 9.37594 7.14354 9.46528C7.29242 9.55463 7.40443 9.69428 7.45934 9.859C7.51425 10.0237 7.50843 10.2026 7.44293 10.3634C7.37743 10.5243 7.25657 10.6563 7.1022 10.7358C4.99668 11.4891 2.97604 12.4614 1.07347 13.6365L1.08256 13.6456Z" fill="url(#paint15_linear_0_1)"/>
<path d="M6.99309 9.29C7.87512 9.08995 10.7667 8.33522 10.7667 6.88942C10.7667 5.35268 6.30201 2.64293 4.65616 1.70634C4.12876 2.61565 3.23763 4.47065 3.71047 5.88917C4.27425 7.58049 6.3111 8.8899 6.99309 9.29ZM12.2216 6.88942C12.2216 9.79921 7.02946 10.7631 7.01127 10.7722C6.84894 10.7992 6.68225 10.7703 6.53843 10.6903C6.52934 10.6903 3.20126 8.93537 2.33741 6.34383C1.45538 3.68864 3.8105 0.32419 3.8105 0.315097C3.91228 0.167172 4.06518 0.0621177 4.23976 0.02015C4.41435 -0.0218177 4.59829 0.00226675 4.75618 0.0877688C4.78346 0.105955 12.2216 4.1433 12.2216 6.88942Z" fill="url(#paint16_linear_0_1)"/>
<path d="M1.08256 13.6456C0.91894 13.7371 0.726301 13.7619 0.544827 13.7149C0.363353 13.6678 0.207057 13.5525 0.108539 13.393C0.0100207 13.2335 -0.023112 13.0421 0.0160514 12.8588C0.0552149 12.6754 0.163651 12.5143 0.318741 12.4089C2.31593 11.1773 4.43722 10.1593 6.64755 9.37184C6.81873 9.3428 6.99466 9.37594 7.14354 9.46528C7.29242 9.55463 7.40443 9.69428 7.45934 9.859C7.51425 10.0237 7.50843 10.2026 7.44293 10.3634C7.37743 10.5243 7.25657 10.6563 7.1022 10.7358C4.99668 11.4891 2.97604 12.4614 1.07347 13.6365L1.08256 13.6456Z" fill="url(#paint17_linear_0_1)"/>
<path d="M38.0824 12.4089C38.2375 12.5143 38.346 12.6754 38.3851 12.8587C38.4243 13.0421 38.3912 13.2335 38.2926 13.393C38.1941 13.5525 38.0378 13.6678 37.8564 13.7149C37.6749 13.7619 37.4822 13.7371 37.3186 13.6456C36.343 13.037 35.3352 12.4815 34.2997 11.9816C33.3219 11.51 32.3168 11.097 31.2899 10.7449C31.1234 10.6718 30.9903 10.5389 30.9169 10.3726C30.8434 10.2062 30.835 10.0183 30.8932 9.84605C30.9514 9.67376 31.072 9.52951 31.2312 9.44173C31.3905 9.35395 31.5769 9.32901 31.7536 9.37183C32.7812 9.71737 33.845 10.1629 34.9362 10.6721C36.0001 11.1905 37.0549 11.7633 38.0824 12.4089Z" fill="url(#paint18_linear_0_1)"/>
<path d="M31.3808 10.7722C31.3717 10.7722 26.1705 9.8083 26.1705 6.88942C26.1705 4.1433 33.6268 0.105955 33.6359 0.0877688C33.7938 0.00226675 33.9777 -0.0218177 34.1523 0.02015C34.3269 0.0621177 34.4798 0.167172 34.5816 0.315097C34.5816 0.32419 36.9458 3.68864 36.0638 6.34383C35.1999 8.93536 31.8718 10.6903 31.8627 10.6903C31.7178 10.7672 31.5512 10.7928 31.3899 10.7631L31.3808 10.7722ZM27.6254 6.88032C27.6254 8.32613 30.5261 9.08086 31.4081 9.2809C32.0901 8.88081 34.1269 7.5714 34.6816 5.88008C35.1635 4.46155 34.2633 2.60656 33.7359 1.69725C32.0992 2.63384 27.6254 5.34359 27.6254 6.88032Z" fill="url(#paint19_linear_0_1)"/>
<path d="M26.7342 5.39815C26.855 5.26188 27.0224 5.17582 27.2035 5.15698C27.3845 5.13814 27.5661 5.18788 27.7123 5.29638C27.8585 5.40488 27.9587 5.56426 27.9931 5.74303C28.0275 5.9218 27.9936 6.10698 27.8981 6.26199C26.9672 7.42802 25.7654 8.34889 24.3973 8.94446C22.8606 9.67191 21.0692 10.1629 19.287 10.3812C19.0952 10.4053 18.9018 10.3523 18.7492 10.2337C18.5965 10.1152 18.4973 9.94093 18.4731 9.7492C18.449 9.55747 18.5021 9.36402 18.6206 9.2114C18.7391 9.05877 18.9134 8.95948 19.1051 8.93537C20.7419 8.73532 22.3786 8.28066 23.779 7.62596C24.9299 7.13363 25.9441 6.36912 26.7342 5.39815Z" fill="url(#paint20_linear_0_1)"/>
<path d="M10.4939 6.262C10.3794 6.10645 10.3313 5.91176 10.3603 5.72077C10.3893 5.52977 10.493 5.35812 10.6485 5.24357C10.8041 5.12902 10.9988 5.08095 11.1897 5.10994C11.3807 5.13893 11.5524 5.2426 11.6669 5.39815C12.4571 6.36912 13.4712 7.13364 14.6222 7.62596C16.0135 8.28067 17.6502 8.73532 19.287 8.93537C19.4787 8.95949 19.653 9.05878 19.7715 9.2114C19.89 9.36403 19.9431 9.55748 19.9189 9.7492C19.8948 9.94093 19.7955 10.1152 19.6429 10.2337C19.4903 10.3523 19.2968 10.4053 19.1051 10.3812C17.3402 10.1711 15.619 9.68633 14.0039 8.94446C12.6325 8.35016 11.4275 7.42921 10.4939 6.262Z" fill="url(#paint21_linear_0_1)"/>
<path d="M77.0717 15.84V22.2625H85.5767V26.375H77.0717V36H71.3142V11.745H87.2567L86.6617 15.84H77.0717ZM100.666 11.745V30.155C100.666 30.9017 100.876 31.4383 101.296 31.765C101.727 32.08 102.316 32.2375 103.063 32.2375C103.541 32.2375 104.002 32.185 104.446 32.08C104.889 31.9633 105.303 31.8292 105.688 31.6775L107.018 35.37C106.388 35.6967 105.63 35.9825 104.743 36.2275C103.856 36.4725 102.824 36.595 101.646 36.595C99.4055 36.595 97.7605 35.9533 96.7105 34.67C95.6605 33.375 95.1355 31.6425 95.1355 29.4725V16.1375H89.658V11.745H100.666ZM127.602 30.645C127.602 31.345 127.695 31.8525 127.882 32.1675C128.08 32.4825 128.395 32.7217 128.827 32.885L127.689 36.525C126.593 36.42 125.665 36.1808 124.907 35.8075C124.16 35.4225 123.571 34.845 123.139 34.075C122.428 34.9267 121.518 35.5625 120.409 35.9825C119.301 36.3908 118.169 36.595 117.014 36.595C115.101 36.595 113.573 36.0525 112.429 34.9675C111.298 33.8708 110.732 32.465 110.732 30.75C110.732 28.7317 111.519 27.1742 113.094 26.0775C114.681 24.9808 116.909 24.4325 119.779 24.4325H122.282V23.7325C122.282 22.7642 121.967 22.0467 121.337 21.58C120.719 21.1133 119.809 20.88 118.607 20.88C118.012 20.88 117.248 20.9675 116.314 21.1425C115.381 21.3058 114.448 21.545 113.514 21.86L112.237 18.185C113.439 17.73 114.687 17.3858 115.982 17.1525C117.289 16.9192 118.455 16.8025 119.482 16.8025C122.247 16.8025 124.289 17.3683 125.607 18.5C126.937 19.62 127.602 21.2417 127.602 23.365V30.645ZM118.922 32.64C119.517 32.64 120.141 32.465 120.794 32.115C121.448 31.7533 121.944 31.2458 122.282 30.5925V27.5825H120.917C119.377 27.5825 118.245 27.8217 117.522 28.3C116.799 28.7667 116.437 29.455 116.437 30.365C116.437 31.0767 116.653 31.6367 117.084 32.045C117.528 32.4417 118.14 32.64 118.922 32.64ZM146.681 16.8025C147.567 16.8025 148.296 16.9892 148.868 17.3625C149.44 17.7358 149.866 18.325 150.146 19.13C150.426 19.9233 150.566 20.9617 150.566 22.245V36H145.823V22.875C145.823 22.2217 145.759 21.7608 145.631 21.4925C145.514 21.2242 145.269 21.09 144.896 21.09C144.604 21.09 144.301 21.1775 143.986 21.3525C143.682 21.5158 143.344 21.8308 142.971 22.2975V36H139.086V22.875C139.086 22.2217 139.021 21.7608 138.893 21.4925C138.776 21.2242 138.531 21.09 138.158 21.09C137.866 21.09 137.563 21.1775 137.248 21.3525C136.945 21.5158 136.606 21.8308 136.233 22.2975V36H131.421V17.415H135.481L135.848 19.2175C136.431 18.4242 137.021 17.8233 137.616 17.415C138.211 17.0067 138.916 16.8025 139.733 16.8025C140.433 16.8025 141.028 16.9833 141.518 17.345C142.02 17.695 142.376 18.2492 142.586 19.0075C143.146 18.3542 143.764 17.8233 144.441 17.415C145.117 17.0067 145.864 16.8025 146.681 16.8025ZM158.724 28.3175C158.853 29.3325 159.115 30.155 159.512 30.785C159.92 31.4033 160.439 31.8583 161.069 32.15C161.699 32.43 162.405 32.57 163.187 32.57C164.039 32.57 164.861 32.43 165.654 32.15C166.448 31.87 167.212 31.4967 167.947 31.03L170.169 34.04C169.294 34.7867 168.233 35.3992 166.984 35.8775C165.748 36.3558 164.336 36.595 162.749 36.595C160.626 36.595 158.847 36.175 157.412 35.335C155.977 34.4833 154.898 33.3167 154.174 31.835C153.451 30.3533 153.089 28.65 153.089 26.725C153.089 24.8933 153.439 23.2308 154.139 21.7375C154.839 20.2325 155.86 19.0367 157.202 18.15C158.555 17.2517 160.206 16.8025 162.154 16.8025C163.928 16.8025 165.462 17.1817 166.757 17.94C168.064 18.6983 169.073 19.7892 169.784 21.2125C170.508 22.6358 170.869 24.345 170.869 26.34C170.869 26.655 170.858 26.9933 170.834 27.355C170.823 27.7167 170.799 28.0375 170.764 28.3175H158.724ZM162.154 20.5125C161.163 20.5125 160.364 20.8683 159.757 21.58C159.15 22.2917 158.783 23.4292 158.654 24.9925H165.479C165.468 23.6392 165.205 22.5542 164.692 21.7375C164.179 20.9208 163.333 20.5125 162.154 20.5125Z" fill="white"/>
<path d="M198.132 11.745L195.297 36H189.33L187.562 18.6575L185.62 36H179.547L176.922 11.745H182.295L183.117 31.1L185.13 14.545H190.065L191.937 31.1L193.145 11.745H198.132ZM208.514 16.8025C210.427 16.8025 212.055 17.2108 213.396 18.0275C214.738 18.8442 215.765 19.9933 216.476 21.475C217.188 22.945 217.544 24.6717 217.544 26.655C217.544 28.72 217.182 30.4992 216.459 31.9925C215.747 33.4742 214.72 34.6117 213.379 35.405C212.037 36.1983 210.415 36.595 208.514 36.595C206.624 36.595 205.002 36.2042 203.649 35.4225C202.307 34.6408 201.275 33.5092 200.551 32.0275C199.84 30.5458 199.484 28.7667 199.484 26.69C199.484 24.7183 199.84 22.9917 200.551 21.51C201.275 20.0283 202.307 18.8733 203.649 18.045C205.002 17.2167 206.624 16.8025 208.514 16.8025ZM208.514 20.88C207.382 20.88 206.542 21.3467 205.994 22.28C205.457 23.2017 205.189 24.6717 205.189 26.69C205.189 28.7433 205.457 30.2308 205.994 31.1525C206.542 32.0742 207.382 32.535 208.514 32.535C209.645 32.535 210.48 32.0742 211.016 31.1525C211.565 30.2308 211.839 28.7317 211.839 26.655C211.839 24.6483 211.565 23.1842 211.016 22.2625C210.48 21.3408 209.645 20.88 208.514 20.88ZM231.145 10.03V30.155C231.145 30.9017 231.355 31.4383 231.775 31.765C232.207 32.08 232.796 32.2375 233.543 32.2375C234.021 32.2375 234.482 32.185 234.925 32.08C235.368 31.9633 235.783 31.8292 236.168 31.6775L237.498 35.37C236.868 35.6967 236.109 35.9825 235.223 36.2275C234.336 36.4725 233.303 36.595 232.125 36.595C229.885 36.595 228.24 35.9533 227.19 34.67C226.14 33.375 225.615 31.6425 225.615 29.4725V13.81H220.138V10.03H231.145ZM254.266 9.4525C255.62 9.4525 256.815 9.56333 257.854 9.785C258.892 9.995 259.82 10.275 260.636 10.625L259.114 14.23C258.472 13.985 257.813 13.81 257.136 13.705C256.46 13.5883 255.789 13.53 255.124 13.53C254.027 13.53 253.24 13.7283 252.761 14.125C252.295 14.5217 252.061 15.1808 252.061 16.1025V18.5875H258.116L257.504 22.42H252.061V36H246.566V22.42H242.664V18.5875H246.566V15.8925C246.566 14.6675 246.858 13.5708 247.441 12.6025C248.025 11.6342 248.888 10.87 250.031 10.31C251.175 9.73833 252.586 9.4525 254.266 9.4525Z" fill="white"/>
</g>
<defs>
<linearGradient id="paint0_linear_0_1" x1="318" y1="0" x2="318" y2="48" gradientUnits="userSpaceOnUse">
<stop stop-color="#7CDBF9"/>
<stop offset="1" stop-color="#7D42C7"/>
</linearGradient>
<linearGradient id="paint1_linear_0_1" x1="19.2106" y1="16.2862" x2="19.2106" y2="48" gradientUnits="userSpaceOnUse">
<stop stop-color="#F3F584"/>
<stop offset="1" stop-color="#EB655C"/>
</linearGradient>
<linearGradient id="paint2_linear_0_1" x1="16.1135" y1="29.2676" x2="16.1135" y2="36.8876" gradientUnits="userSpaceOnUse">
<stop stop-color="#FFC977"/>
<stop offset="1" stop-color="#AE1FBA"/>
</linearGradient>
<linearGradient id="paint3_linear_0_1" x1="22.2786" y1="29.2676" x2="22.2786" y2="36.8785" gradientUnits="userSpaceOnUse">
<stop stop-color="#FFC977"/>
<stop offset="1" stop-color="#AE1FBA"/>
</linearGradient>
<linearGradient id="paint4_linear_0_1" x1="11.4478" y1="24.6392" x2="11.4478" y2="30.7225" gradientUnits="userSpaceOnUse">
<stop stop-color="#FFC977"/>
<stop offset="1" stop-color="#AE1FBA"/>
</linearGradient>
<linearGradient id="paint5_linear_0_1" x1="26.9488" y1="24.6392" x2="26.9488" y2="30.7225" gradientUnits="userSpaceOnUse">
<stop stop-color="#FFC977"/>
<stop offset="1" stop-color="#AE1FBA"/>
</linearGradient>
<linearGradient id="paint6_linear_0_1" x1="19.1999" y1="15.4655" x2="19.1999" y2="39.2493" gradientUnits="userSpaceOnUse">
<stop stop-color="#FFC977"/>
<stop offset="1" stop-color="#AE1FBA"/>
</linearGradient>
<linearGradient id="paint7_linear_0_1" x1="28.4283" y1="13.8987" x2="28.4283" y2="20.2657" gradientUnits="userSpaceOnUse">
<stop stop-color="#FFC977"/>
<stop offset="1" stop-color="#AE1FBA"/>
</linearGradient>
<linearGradient id="paint8_linear_0_1" x1="9.95184" y1="13.9066" x2="9.95184" y2="20.2663" gradientUnits="userSpaceOnUse">
<stop stop-color="#FFC977"/>
<stop offset="1" stop-color="#AE1FBA"/>
</linearGradient>
<linearGradient id="paint9_linear_0_1" x1="34.6247" y1="12.2507" x2="34.6247" y2="16.5989" gradientUnits="userSpaceOnUse">
<stop stop-color="#FFC977"/>
<stop offset="1" stop-color="#AE1FBA"/>
</linearGradient>
<linearGradient id="paint10_linear_0_1" x1="3.78492" y1="12.2381" x2="3.78492" y2="16.5989" gradientUnits="userSpaceOnUse">
<stop stop-color="#FFC977"/>
<stop offset="1" stop-color="#AE1FBA"/>
</linearGradient>
<linearGradient id="paint11_linear_0_1" x1="13.8632" y1="14.0529" x2="13.8632" y2="18.7423" gradientUnits="userSpaceOnUse">
<stop stop-color="#FFC977"/>
<stop offset="1" stop-color="#AE1FBA"/>
</linearGradient>
<linearGradient id="paint12_linear_0_1" x1="24.5334" y1="14.045" x2="24.5334" y2="18.7381" gradientUnits="userSpaceOnUse">
<stop stop-color="#FFC977"/>
<stop offset="1" stop-color="#AE1FBA"/>
</linearGradient>
<linearGradient id="paint13_linear_0_1" x1="19.196" y1="28.2491" x2="19.196" y2="34.1597" gradientUnits="userSpaceOnUse">
<stop stop-color="#FFC977"/>
<stop offset="1" stop-color="#AE1FBA"/>
</linearGradient>
<linearGradient id="paint14_linear_0_1" x1="19.2006" y1="27.8809" x2="19.2006" y2="31.4044" gradientUnits="userSpaceOnUse">
<stop stop-color="#FFC977"/>
<stop offset="1" stop-color="#AE1FBA"/>
</linearGradient>
<linearGradient id="paint15_linear_0_1" x1="11.403" y1="9.36159" x2="11.403" y2="32.1228" gradientUnits="userSpaceOnUse">
<stop stop-color="#FFC977"/>
<stop offset="1" stop-color="#AE1FBA"/>
</linearGradient>
<linearGradient id="paint16_linear_0_1" x1="7.18067" y1="0" x2="7.18067" y2="10.782" gradientUnits="userSpaceOnUse">
<stop stop-color="#FFC977"/>
<stop offset="1" stop-color="#AE1FBA"/>
</linearGradient>
<linearGradient id="paint17_linear_0_1" x1="3.74834" y1="9.36159" x2="3.74834" y2="13.7382" gradientUnits="userSpaceOnUse">
<stop stop-color="#FFC977"/>
<stop offset="1" stop-color="#AE1FBA"/>
</linearGradient>
<linearGradient id="paint18_linear_0_1" x1="34.628" y1="9.35138" x2="34.628" y2="13.7382" gradientUnits="userSpaceOnUse">
<stop stop-color="#FFC977"/>
<stop offset="1" stop-color="#AE1FBA"/>
</linearGradient>
<linearGradient id="paint19_linear_0_1" x1="31.2157" y1="0" x2="31.2157" y2="10.7751" gradientUnits="userSpaceOnUse">
<stop stop-color="#FFC977"/>
<stop offset="1" stop-color="#AE1FBA"/>
</linearGradient>
<linearGradient id="paint20_linear_0_1" x1="23.2368" y1="5.15308" x2="23.2368" y2="10.3869" gradientUnits="userSpaceOnUse">
<stop stop-color="#FFC977"/>
<stop offset="1" stop-color="#AE1FBA"/>
</linearGradient>
<linearGradient id="paint21_linear_0_1" x1="15.1383" y1="5.10168" x2="15.1383" y2="10.3869" gradientUnits="userSpaceOnUse">
<stop stop-color="#FFC977"/>
<stop offset="1" stop-color="#AE1FBA"/>
</linearGradient>
<clipPath id="clip0_0_1">
<rect width="336" height="48" fill="white"/>
</clipPath>
</defs>
</svg>
