<svg width="512" height="512" viewBox="0 0 512 512" fill="none" xmlns="http://www.w3.org/2000/svg">
<path d="M217.6 29.9L233.6 8.6C237.6 3.2 244 0 250.7 0C262.4 0 272 9.6 272 21.3V43.5C272 56.6 277.4 69.2 286.9 78.2L371.6 159C420.4 205.6 448 270.2 448 337.7C448 434 370 512 273.7 512H256C150 512 64 426 64 320V316.2C64 267.4 83.4 220.6 117.9 186.1L121.4 182.6C125.6 178.4 131.4 176 137.4 176C149.9 176 160 186.1 160 198.6V288C160 323.3 188.7 352 224 352C259.3 352 288 323.3 288 288V284.1C288 266.1 280.8 248.8 268.1 236.1L229.5 197.5C205.5 173.5 192 140.8 192 106.8C192 79.1 201 52 217.6 29.9Z" fill="url(#paint0_linear_0_1)"/>
<defs>
<linearGradient id="paint0_linear_0_1" x1="256" y1="0" x2="256" y2="512" gradientUnits="userSpaceOnUse">
<stop stop-color="#7CDBF9"/>
<stop offset="1" stop-color="#7D42C7"/>
</linearGradient>
</defs>
</svg>
