<svg width="172" height="42" viewBox="0 0 172 42" fill="none" xmlns="http://www.w3.org/2000/svg">
<g clip-path="url(#clip0_0_1)">
<path d="M12.2513 13.568V19.44H20.0273V23.2H12.2513V32H6.98725V9.824H21.5633L21.0193 13.568H12.2513ZM33.8228 9.824V26.656C33.8228 27.3387 34.0148 27.8293 34.3988 28.128C34.7934 28.416 35.3321 28.56 36.0148 28.56C36.4521 28.56 36.8734 28.512 37.2788 28.416C37.6841 28.3093 38.0628 28.1867 38.4148 28.048L39.6308 31.424C39.0548 31.7227 38.3614 31.984 37.5508 32.208C36.7401 32.432 35.7961 32.544 34.7188 32.544C32.6708 32.544 31.1668 31.9573 30.2068 30.784C29.2468 29.6 28.7668 28.016 28.7668 26.032V13.84H23.7588V9.824H33.8228ZM58.4503 27.104C58.4503 27.744 58.5356 28.208 58.7063 28.496C58.8876 28.784 59.1756 29.0027 59.5703 29.152L58.5303 32.48C57.5276 32.384 56.6796 32.1653 55.9863 31.824C55.3036 31.472 54.7649 30.944 54.3703 30.24C53.7196 31.0187 52.8876 31.6 51.8743 31.984C50.8609 32.3573 49.8263 32.544 48.7703 32.544C47.0209 32.544 45.6236 32.048 44.5783 31.056C43.5436 30.0533 43.0263 28.768 43.0263 27.2C43.0263 25.3547 43.7463 23.9307 45.1863 22.928C46.6369 21.9253 48.6743 21.424 51.2983 21.424H53.5863V20.784C53.5863 19.8987 53.2983 19.2427 52.7223 18.816C52.1569 18.3893 51.3249 18.176 50.2263 18.176C49.6823 18.176 48.9836 18.256 48.1303 18.416C47.2769 18.5653 46.4236 18.784 45.5703 19.072L44.4023 15.712C45.5009 15.296 46.6423 14.9813 47.8263 14.768C49.0209 14.5547 50.0876 14.448 51.0263 14.448C53.5543 14.448 55.4209 14.9653 56.6263 16C57.8423 17.024 58.4503 18.5067 58.4503 20.448V27.104ZM50.5143 28.928C51.0583 28.928 51.6289 28.768 52.2263 28.448C52.8236 28.1173 53.2769 27.6533 53.5863 27.056V24.304H52.3383C50.9303 24.304 49.8956 24.5227 49.2343 24.96C48.5729 25.3867 48.2423 26.016 48.2423 26.848C48.2423 27.4987 48.4396 28.0107 48.8343 28.384C49.2396 28.7467 49.7996 28.928 50.5143 28.928ZM75.8938 14.448C76.7044 14.448 77.3711 14.6187 77.8938 14.96C78.4164 15.3013 78.8058 15.84 79.0618 16.576C79.3178 17.3013 79.4458 18.2507 79.4458 19.424V32H75.1098V20C75.1098 19.4027 75.0511 18.9813 74.9338 18.736C74.8271 18.4907 74.6031 18.368 74.2618 18.368C73.9951 18.368 73.7178 18.448 73.4298 18.608C73.1524 18.7573 72.8431 19.0453 72.5018 19.472V32H68.9498V20C68.9498 19.4027 68.8911 18.9813 68.7738 18.736C68.6671 18.4907 68.4431 18.368 68.1018 18.368C67.8351 18.368 67.5578 18.448 67.2698 18.608C66.9924 18.7573 66.6831 19.0453 66.3418 19.472V32H61.9418V15.008H65.6538L65.9898 16.656C66.5231 15.9307 67.0618 15.3813 67.6058 15.008C68.1498 14.6347 68.7951 14.448 69.5417 14.448C70.1817 14.448 70.7258 14.6133 71.1738 14.944C71.6324 15.264 71.9578 15.7707 72.1498 16.464C72.6618 15.8667 73.2271 15.3813 73.8458 15.008C74.4644 14.6347 75.1471 14.448 75.8938 14.448ZM86.9053 24.976C87.0226 25.904 87.2626 26.656 87.6253 27.232C87.9986 27.7973 88.4733 28.2133 89.0493 28.48C89.6253 28.736 90.2706 28.864 90.9853 28.864C91.7639 28.864 92.5159 28.736 93.2413 28.48C93.9666 28.224 94.6653 27.8827 95.3373 27.456L97.3693 30.208C96.5693 30.8907 95.5986 31.4507 94.4573 31.888C93.3266 32.3253 92.0359 32.544 90.5853 32.544C88.6439 32.544 87.0173 32.16 85.7053 31.392C84.3933 30.6133 83.4066 29.5467 82.7453 28.192C82.0839 26.8373 81.7533 25.28 81.7533 23.52C81.7533 21.8453 82.0733 20.3253 82.7133 18.96C83.3533 17.584 84.2866 16.4907 85.5133 15.68C86.7506 14.8587 88.2599 14.448 90.0413 14.448C91.6626 14.448 93.0653 14.7947 94.2493 15.488C95.4439 16.1813 96.3666 17.1787 97.0173 18.48C97.6786 19.7813 98.0093 21.344 98.0093 23.168C98.0093 23.456 97.9986 23.7653 97.9773 24.096C97.9666 24.4267 97.9453 24.72 97.9132 24.976H86.9053ZM90.0413 17.84C89.1346 17.84 88.4039 18.1653 87.8493 18.816C87.2946 19.4667 86.9586 20.5067 86.8413 21.936H93.0813C93.0706 20.6987 92.8306 19.7067 92.3613 18.96C91.8919 18.2133 91.1186 17.84 90.0413 17.84Z" fill="white"/>
<path d="M117.888 10.345L114.738 31H111.318L108.948 15.415L106.563 31H103.068L100.158 10.345H102.768L104.973 28.135L107.448 12.745H110.643L112.998 28.135L115.473 10.345H117.888ZM127.042 14.875C128.532 14.875 129.777 15.215 130.777 15.895C131.787 16.565 132.542 17.515 133.042 18.745C133.552 19.975 133.807 21.425 133.807 23.095C133.807 24.705 133.547 26.13 133.027 27.37C132.507 28.61 131.742 29.585 130.732 30.295C129.732 30.995 128.492 31.345 127.012 31.345C125.532 31.345 124.287 31.005 123.277 30.325C122.267 29.645 121.502 28.69 120.982 27.46C120.472 26.22 120.217 24.775 120.217 23.125C120.217 21.495 120.477 20.06 120.997 18.82C121.517 17.58 122.282 16.615 123.292 15.925C124.312 15.225 125.562 14.875 127.042 14.875ZM127.042 16.93C125.682 16.93 124.652 17.435 123.952 18.445C123.262 19.445 122.917 21.005 122.917 23.125C122.917 25.205 123.257 26.75 123.937 27.76C124.627 28.77 125.652 29.275 127.012 29.275C128.372 29.275 129.392 28.77 130.072 27.76C130.762 26.75 131.107 25.195 131.107 23.095C131.107 20.995 130.767 19.445 130.087 18.445C129.407 17.435 128.392 16.93 127.042 16.93ZM145.165 8.845V27.1C145.165 27.88 145.405 28.435 145.885 28.765C146.375 29.085 147.005 29.245 147.775 29.245C148.255 29.245 148.71 29.195 149.14 29.095C149.57 28.995 150 28.86 150.43 28.69L151.105 30.535C150.675 30.745 150.14 30.93 149.5 31.09C148.87 31.26 148.155 31.345 147.355 31.345C145.955 31.345 144.82 30.96 143.95 30.19C143.08 29.41 142.645 28.335 142.645 26.965V10.84H137.8V8.845H145.165ZM166.333 8.53C167.183 8.53 167.953 8.605 168.643 8.755C169.333 8.905 169.988 9.115 170.608 9.385L169.798 11.26C169.288 11.04 168.748 10.875 168.178 10.765C167.608 10.655 167.018 10.6 166.408 10.6C165.308 10.6 164.478 10.815 163.918 11.245C163.368 11.675 163.093 12.335 163.093 13.225V16.435H168.448L168.178 18.415H163.093V31H160.573V18.415H156.808V16.435H160.573V13.285C160.573 12.305 160.823 11.46 161.323 10.75C161.833 10.04 162.523 9.495 163.393 9.115C164.263 8.725 165.243 8.53 166.333 8.53Z" fill="white"/>
</g>
<defs>
<clipPath id="clip0_0_1">
<rect width="172" height="42" fill="white"/>
</clipPath>
</defs>
</svg>
