<svg width="172" height="42" viewBox="0 0 172 42" fill="none" xmlns="http://www.w3.org/2000/svg">
<g clip-path="url(#clip0_0_1)">
<path d="M4.28125 32V9.8125H19.2812V13.2812H8.04688V20.0781H16.3125V23.5625H8.04688V32H4.28125ZM32.2188 32.3125C30.1979 32.3125 28.7396 31.7604 27.8438 30.6562C26.9583 29.5521 26.5156 27.7865 26.5156 25.3594V12.0625H21.75V8.5625H30.3594V25.2031C30.3594 26.349 30.5469 27.1823 30.9219 27.7031C31.3073 28.224 32.1562 28.4844 33.4688 28.4844C34.3646 28.4844 35.5 28.2865 36.875 27.8906L37.3125 31.6562C36.4479 31.8854 35.6146 32.0521 34.8125 32.1562C34.0104 32.2604 33.1458 32.3125 32.2188 32.3125ZM51.6875 32.1562L51.4688 28.5H51.1094C50.974 29.7708 50.4531 30.724 49.5469 31.3594C48.651 31.9948 47.4635 32.3125 45.9844 32.3125C44.2344 32.3125 42.875 31.8906 41.9062 31.0469C40.9479 30.1927 40.4688 28.9792 40.4688 27.4062C40.4688 25.5938 41.1146 24.2031 42.4062 23.2344C43.6979 22.2656 45.526 21.7812 47.8906 21.7812C49.151 21.7812 50.2448 21.8802 51.1719 22.0781V21.75C51.1719 20.7812 50.7917 20.0729 50.0312 19.625C49.2708 19.1667 48.1354 18.9167 46.625 18.875L42.5 18.7656L42.8125 15.2812L46.3125 15.3281C49.2083 15.3698 51.3594 15.9635 52.7656 17.1094C54.1719 18.2448 54.875 19.9062 54.875 22.0938V28.5312L57.375 28.875V32L51.6875 32.1562ZM51.1719 25.1875C50.6094 25.0833 50.0729 25.026 49.5625 25.0156C49.0625 24.9948 48.5365 24.9844 47.9844 24.9844C45.526 24.9844 44.2969 25.7083 44.2969 27.1562C44.2969 28.4583 45.1406 29.1094 46.8281 29.1094C47.7969 29.1094 48.599 28.9375 49.2344 28.5938C49.8802 28.2396 50.3646 27.7969 50.6875 27.2656C51.0104 26.724 51.1719 26.1667 51.1719 25.5938V25.1875ZM71.2188 32V20.2031C71.2188 19.0573 70.849 18.4844 70.1094 18.4844C69.224 18.4844 68.7812 19.1562 68.7812 20.5V32H65.7656V19.8906C65.7656 18.9531 65.3906 18.4844 64.6406 18.4844C63.7448 18.4844 63.2969 19.1562 63.2969 20.5V32H59.4688V15.4375H62.9219L63.1406 17.5H63.4688C63.6458 15.9167 64.526 15.125 66.1094 15.125C67.526 15.125 68.3802 15.9167 68.6719 17.5H69.0156C69.0885 16.7917 69.3646 16.2188 69.8438 15.7812C70.3229 15.3438 70.974 15.125 71.7969 15.125C72.9219 15.125 73.7396 15.4323 74.25 16.0469C74.7708 16.6615 75.0312 17.6562 75.0312 19.0312V32H71.2188ZM87.3594 32.3125C84.5052 32.3125 82.3021 31.5729 80.75 30.0938C79.2083 28.6042 78.4375 26.4688 78.4375 23.6875C78.4375 20.9792 79.0938 18.875 80.4062 17.375C81.7292 15.875 83.5885 15.125 85.9844 15.125C88.2969 15.125 90.0833 15.8125 91.3438 17.1875C92.6146 18.5625 93.25 20.5573 93.25 23.1719C93.25 23.9219 93.2188 24.6354 93.1562 25.3125H82.375C83 27.6042 84.7865 28.75 87.7344 28.75C88.4635 28.75 89.1771 28.7135 89.875 28.6406C90.5833 28.5573 91.3021 28.4479 92.0312 28.3125L92.4375 31.875C91.4062 32.0625 90.4635 32.1823 89.6094 32.2344C88.7656 32.2865 88.0156 32.3125 87.3594 32.3125ZM82.2031 22.5312H89.5625C89.5625 21.2604 89.25 20.2917 88.625 19.625C88 18.9479 87.1302 18.6094 86.0156 18.6094C84.9323 18.6094 84.0625 18.9479 83.4062 19.625C82.75 20.3021 82.349 21.2708 82.2031 22.5312ZM97.9531 32L95.5312 9.8125H99.2812L100.844 28.7969H101.234L103.047 15.4375H106.484L108.266 28.7969H108.656L110.219 9.8125H113.969L111.547 32H106.25L104.844 19.2344H104.656L103.25 32H97.9531ZM123.5 32.3125C121.146 32.3125 119.323 31.5625 118.031 30.0625C116.74 28.5625 116.094 26.4479 116.094 23.7188C116.094 20.9792 116.74 18.8646 118.031 17.375C119.323 15.875 121.146 15.125 123.5 15.125C125.854 15.125 127.677 15.875 128.969 17.375C130.26 18.8646 130.906 20.9792 130.906 23.7188C130.906 26.4479 130.26 28.5625 128.969 30.0625C127.677 31.5625 125.854 32.3125 123.5 32.3125ZM123.5 28.7188C124.594 28.7188 125.438 28.2865 126.031 27.4219C126.635 26.5469 126.938 25.3125 126.938 23.7188C126.938 22.1146 126.635 20.8802 126.031 20.0156C125.438 19.151 124.594 18.7188 123.5 18.7188C122.406 18.7188 121.557 19.151 120.953 20.0156C120.359 20.8802 120.062 22.1146 120.062 23.7188C120.062 25.3125 120.359 26.5469 120.953 27.4219C121.557 28.2865 122.406 28.7188 123.5 28.7188ZM144.719 32.3125C142.698 32.3125 141.24 31.7604 140.344 30.6562C139.458 29.5521 139.016 27.7865 139.016 25.3594V12.0625H134.25V8.5625H142.859V25.2031C142.859 26.349 143.047 27.1823 143.422 27.7031C143.807 28.224 144.656 28.4844 145.969 28.4844C146.865 28.4844 148 28.2865 149.375 27.8906L149.812 31.6562C148.948 31.8854 148.115 32.0521 147.312 32.1562C146.51 32.2604 145.646 32.3125 144.719 32.3125ZM157.641 32V22.2188H152.531V18.875H157.641V16.8438C157.641 11.1146 160.344 8.25 165.75 8.25C167 8.25 168.198 8.35417 169.344 8.5625L168.969 12.0625C168.292 11.9792 167.693 11.9219 167.172 11.8906C166.651 11.8594 166.146 11.8438 165.656 11.8438C162.875 11.8438 161.484 13.4583 161.484 16.6875V18.875H168.156V22.2188H161.484V32H157.641Z" fill="white"/>
</g>
<defs>
<clipPath id="clip0_0_1">
<rect width="172" height="42" fill="white"/>
</clipPath>
</defs>
</svg>
