<svg width="1024" height="1024" viewBox="0 0 1024 1024" fill="none" xmlns="http://www.w3.org/2000/svg">
<path d="M438.857 81.3333L469.333 40.7619C476.952 30.4762 489.143 24.381 501.905 24.381C524.19 24.381 542.476 42.6667 542.476 64.9524V107.238C542.476 132.19 552.762 156.19 570.857 173.333L732.19 327.238C825.143 416 877.714 539.048 877.714 667.619C877.714 851.048 729.143 999.619 545.714 999.619H512C310.095 999.619 146.286 835.81 146.286 633.905V626.667C146.286 533.714 183.238 444.571 248.952 378.857L255.619 372.19C263.619 364.19 274.667 359.619 286.095 359.619C309.905 359.619 329.143 378.857 329.143 402.667V572.952C329.143 640.19 383.809 694.857 451.048 694.857C518.286 694.857 572.952 640.19 572.952 572.952V565.524C572.952 531.238 559.238 498.286 535.048 474.095L461.524 400.571C415.809 354.857 390.095 292.571 390.095 227.81C390.095 175.048 407.238 123.429 438.857 81.3333Z" fill="url(#paint0_linear_0_1)"/>
<defs>
<linearGradient id="paint0_linear_0_1" x1="512" y1="24.381" x2="512" y2="999.619" gradientUnits="userSpaceOnUse">
<stop stop-color="#7CDBF9"/>
<stop offset="1" stop-color="#7D42C7"/>
</linearGradient>
</defs>
</svg>
